<?xml version="1.0" ?><svg viewBox="0 0 64 64" xmlns="http://www.w3.org/2000/svg"><title/><g id="Accounting"><path d="M52,2H14a1,1,0,0,0-1,1V27a1,1,0,0,0,1,1H30V55a1,1,0,0,0,1,1H53V3A1,1,0,0,0,52,2Z" style="fill:#318fb5"/><rect height="8" rx="1" style="fill:#f7d6bf" width="26" x="20" y="9"/><rect height="36" rx="1" style="fill:#b0cac7" width="30" x="2" y="26"/><rect height="7" rx="1" style="fill:#318fb5" width="18" x="8" y="31"/><rect height="16" rx="1" style="fill:#318fb5" width="18" x="8" y="41"/><rect height="6" rx="2" style="fill:#f7d6bf" width="12" x="49" y="55"/><rect height="6" rx="2" style="fill:#f7d6bf" width="12" x="37" y="55"/><rect height="6" rx="2" style="fill:#f7d6bf" width="12" x="49" y="49"/><rect height="6" rx="2" style="fill:#f7d6bf" width="12" x="37" y="49"/><rect height="6" rx="2" style="fill:#f7d6bf" width="12" x="49" y="43"/><rect height="6" rx="2" style="fill:#f7d6bf" width="12" x="37" y="43"/><path d="M45,9H21a1,1,0,0,0-1,1v6a1,1,0,0,0,1,1H45a1,1,0,0,0,1-1V10A1,1,0,0,0,45,9Zm-1,6H22V11H44Z" style="fill:#096293"/><path d="M44,22H25a1,1,0,0,0,0,2H44a1,1,0,0,0,0-2Z" style="fill:#096293"/><path d="M8,32v5a1,1,0,0,0,1,1H25a1,1,0,0,0,1-1V32a1,1,0,0,0-1-1H9A1,1,0,0,0,8,32Zm2,1H24v3H10Z" style="fill:#096293"/><path d="M25,41H9a1,1,0,0,0-1,1V56a1,1,0,0,0,1,1H25a1,1,0,0,0,1-1V42A1,1,0,0,0,25,41ZM16,55H10V50h6Zm0-7H10V43h6Zm8,7H18V50h6Zm0-7H18V43h6Z" style="fill:#096293"/><path d="M62,45a3.0033,3.0033,0,0,0-3-3H53V3a1,1,0,0,0-1-1H14a1,1,0,0,0-1,1V26H3a1,1,0,0,0-1,1V61a1,1,0,0,0,1,1H31a1,1,0,0,0,1-1V56h4.1843A2.9635,2.9635,0,0,0,36,57v2a3.0033,3.0033,0,0,0,3,3h8a2.9769,2.9769,0,0,0,2-.78A2.9769,2.9769,0,0,0,51,62h8a3.0033,3.0033,0,0,0,3-3V57a2.9769,2.9769,0,0,0-.78-2A2.9769,2.9769,0,0,0,62,53V51a2.9769,2.9769,0,0,0-.78-2A2.9769,2.9769,0,0,0,62,47ZM30,55v5H4V28H30Zm18,4a1.0006,1.0006,0,0,1-1,1H39a1.0006,1.0006,0,0,1-1-1V57a1.0006,1.0006,0,0,1,1-1h8a1.0006,1.0006,0,0,1,1,1Zm0-6a1.0006,1.0006,0,0,1-1,1H39a1.0006,1.0006,0,0,1-1-1V51a1.0006,1.0006,0,0,1,1-1h8a1.0006,1.0006,0,0,1,1,1Zm0-6a1.0006,1.0006,0,0,1-1,1H39a1.0006,1.0006,0,0,1-1-1V45a1.0006,1.0006,0,0,1,1-1h8a1.0006,1.0006,0,0,1,1,1Zm-1-5H39a3.0033,3.0033,0,0,0-3,3v2a2.9769,2.9769,0,0,0,.78,2A2.9769,2.9769,0,0,0,36,51v2a2.966,2.966,0,0,0,.1843,1H32V38H44a1,1,0,0,0,0-2H32V31H44a1,1,0,0,0,0-2H32V27a1,1,0,0,0-1-1H15V4H51V42a2.9769,2.9769,0,0,0-2,.78A2.9769,2.9769,0,0,0,47,42ZM60,59a1.0006,1.0006,0,0,1-1,1H51a1.0006,1.0006,0,0,1-1-1V57a1.0006,1.0006,0,0,1,1-1h8a1.0006,1.0006,0,0,1,1,1Zm0-6a1.0006,1.0006,0,0,1-1,1H51a1.0006,1.0006,0,0,1-1-1V51a1.0006,1.0006,0,0,1,1-1h8a1.0006,1.0006,0,0,1,1,1Zm0-6a1.0006,1.0006,0,0,1-1,1H51a1.0006,1.0006,0,0,1-1-1V45a1.0006,1.0006,0,0,1,1-1h8a1.0006,1.0006,0,0,1,1,1Z" style="fill:#096293"/></g></svg>