<?xml version="1.0" ?><svg viewBox="0 0 64 64" xmlns="http://www.w3.org/2000/svg"><title/><g id="Question"><path d="M61.4141,52.9287,50.1006,41.6152a2.0026,2.0026,0,0,0-2.8286,0l-2.1215,2.1217-3.0333-3.0338a1,1,0,0,0-1.4141,1.4141l3.0334,3.0338-2.1213,2.1215a2.0019,2.0019,0,0,0,0,2.8281L52.9287,61.4141a2,2,0,0,0,2.8286,0l5.6558-5.6563a1.9993,1.9993,0,0,0,.001-2.8291Z" style="fill:#f7d6bf"/><circle cx="25.5" cy="25.5" r="23.5" style="fill:#318fb5"/><circle cx="25.5" cy="25.5" r="18.8125" style="fill:#b0cac7"/><path d="M25.5,6.6875A18.8125,18.8125,0,1,0,44.3125,25.5,18.8341,18.8341,0,0,0,25.5,6.6875Zm0,35.625A16.8125,16.8125,0,1,1,42.3125,25.5,16.8315,16.8315,0,0,1,25.5,42.3125Z" style="fill:#096293"/><path d="M30.1875,15.125h-9.375a1,1,0,0,0,0,2h8.375V24.5h-5.25a1,1,0,0,0-1,1v3.125a1,1,0,0,0,2,0V26.5h5.25a1,1,0,0,0,1-1V16.125A1,1,0,0,0,30.1875,15.125Z" style="fill:#096293"/><path d="M23.9375,31.792a2.0415,2.0415,0,1,0,2.0415,2.041A2.0439,2.0439,0,0,0,23.9375,31.792Z" style="fill:#096293"/><path d="M61.4141,52.9287,50.1006,41.6152a2.0026,2.0026,0,0,0-2.8286,0l-2.1215,2.1217-2.3511-2.3515A23.5306,23.5306,0,1,0,41.3854,42.8l2.3511,2.3515-2.1213,2.1215a2.0019,2.0019,0,0,0,0,2.8281L52.9287,61.4141a2,2,0,0,0,2.8286,0l5.6558-5.6563a1.9993,1.9993,0,0,0,.001-2.8291ZM4,25.5A21.5,21.5,0,1,1,25.5,47,21.5242,21.5242,0,0,1,4,25.5ZM54.3433,60,43.0293,48.6865l5.6572-5.6572L59.999,54.3438Zm5.6572-5.6572.001-.002.7055.709Z" style="fill:#096293"/></g></svg>