<?xml version="1.0" ?><!DOCTYPE svg  PUBLIC '-//W3C//DTD SVG 1.1//EN'  'http://www.w3.org/Graphics/SVG/1.1/DTD/svg11.dtd'><svg height="8.4666mm" style="shape-rendering:geometricPrecision; text-rendering:geometricPrecision; image-rendering:optimizeQuality; fill-rule:evenodd; clip-rule:evenodd" version="1.1" viewBox="0 0 846.66 846.66" width="8.4666mm" xml:space="preserve" xmlns="http://www.w3.org/2000/svg" xmlns:xlink="http://www.w3.org/1999/xlink"><defs><style type="text/css">
   <![CDATA[
    .fil0 {fill:black;fill-rule:nonzero}
   ]]>
  </style></defs><g id="Layer_x0020_1"><path class="fil0" d="M423.33 9.02c228.82,0 414.31,185.49 414.31,414.31 0,228.82 -185.49,414.31 -414.31,414.31 -228.82,0 -414.31,-185.49 -414.31,-414.31 0,-228.82 185.49,-414.31 414.31,-414.31zm258.76 412.04c-1.32,-142.27 -116.34,-256.67 -258.76,-256.67 -146.26,0 -251.26,111.97 -258.46,253.43 -7.28,144.15 116.41,264.12 258.45,264.12 144.38,0 260.08,-116.51 258.77,-260.88zm40.73 -21l72.68 0c-11.61,-188.39 -162.98,-338.72 -351.45,-349.04l0 72.64c148.41,10.11 267.4,128.09 278.77,276.4zm72.95 41.43l-72.61 0c-8.97,150.46 -128.75,271.26 -279.11,281.51l0 72.64c190.43,-10.43 342.59,-163.63 351.72,-354.15zm-393.15 354.15l0 -72.64c-150.37,-10.24 -270.15,-131.05 -279.12,-281.51l-72.61 0c9.13,190.52 161.29,343.72 351.73,354.15zm-351.46 -395.58l72.68 0c11.36,-148.31 130.36,-266.29 278.77,-276.4l0 -72.64c-188.48,10.32 -339.84,160.65 -351.45,349.04zm314.87 145.63c-27.25,0 -27.25,-41.43 0,-41.43l36.59 0 0 -31.56 -36.59 0c-27.25,0 -27.25,-41.43 0,-41.43l36.59 0 0 -4.76 -82.8 -134.06c-14.25,-23.07 20.87,-44.75 35.12,-21.68l68.39 110.73 68.4 -110.73c14.24,-23.07 49.36,-1.39 35.11,21.68l-82.79 134.06 0 4.76 36.58 0c27.25,0 27.25,41.43 0,41.43l-36.58 0 0 31.56 36.58 0c27.25,0 27.25,41.43 0,41.43l-36.58 0 0 19.36c0,27.25 -41.43,27.25 -41.43,0l0 -19.36 -36.59 0z"/></g></svg>