<?xml version="1.0" ?><svg viewBox="0 0 64 64" xmlns="http://www.w3.org/2000/svg"><title/><g data-name="Pie Chart" id="Pie_Chart"><path d="M29,2A27.0308,27.0308,0,0,0,2,29a1,1,0,0,0,1,1H29a1,1,0,0,0,1-1V3A1,1,0,0,0,29,2Z" style="fill:#b0cac7"/><path d="M29.8857,34.5361A.9993.9993,0,0,0,29,34H3a1,1,0,0,0-1,1A27.0269,27.0269,0,0,0,13.6328,57.1958a1.0013,1.0013,0,0,0,.57.1782,1.0015,1.0015,0,0,0,.8223-.4306L29.8223,35.5693A1,1,0,0,0,29.8857,34.5361Z" style="fill:#f7d6bf"/><path d="M35,8a1,1,0,0,0-1,1V34.6875L19.38,55.8047a1,1,0,0,0,.2524,1.3911A26.9985,26.9985,0,1,0,35,8Z" style="fill:#318fb5"/><path d="M3,30H29a1,1,0,0,0,1-1V3a1,1,0,0,0-1-1A27.0308,27.0308,0,0,0,2,29,1,1,0,0,0,3,30ZM28,4.02V28H4.02A25.034,25.034,0,0,1,28,4.02Z" style="fill:#096293"/><path d="M29.8857,34.5361A.9993.9993,0,0,0,29,34H3a1,1,0,0,0-1,1A27.0269,27.0269,0,0,0,13.6328,57.1958a1.0013,1.0013,0,0,0,.57.1782,1.0015,1.0015,0,0,0,.8223-.4306L29.8223,35.5693A1,1,0,0,0,29.8857,34.5361ZM13.9614,54.9653A25.029,25.029,0,0,1,4.02,36H27.0913Z" style="fill:#096293"/><path d="M35,8a1,1,0,0,0-1,1V34.6875L19.38,55.8047a1,1,0,0,0,.2524,1.3911A26.9985,26.9985,0,1,0,35,8Zm0,52a24.8415,24.8415,0,0,1-13.3955-3.8945L35.8223,35.5693A1.0007,1.0007,0,0,0,36,35V10.02A25,25,0,0,1,35,60Z" style="fill:#096293"/></g></svg>